<?xml version="1.0" encoding="iso-8859-1"?>
<!-- Generator: Adobe Illustrator 16.0.0, SVG Export Plug-In . SVG Version: 6.00 Build 0)  -->
<!DOCTYPE svg PUBLIC "-//W3C//DTD SVG 1.1//EN" "http://www.w3.org/Graphics/SVG/1.1/DTD/svg11.dtd">
<svg version="1.1" id="Capa_1" xmlns="http://www.w3.org/2000/svg" xmlns:xlink="http://www.w3.org/1999/xlink" x="0px" y="0px"
	 width="312.05px" height="312.05px" viewBox="0 0 312.05 312.05" style="enable-background:new 0 0 312.05 312.05;"
	 xml:space="preserve">
<g>
	<g>
		<path d="M232.01,99.367c-29.426,0-53.662,22.541-56.384,51.258h-41.9c-2.732-28.717-26.963-51.258-56.386-51.258
			c-29.42,0-53.66,22.541-56.384,51.258H5.4c-2.984,0-5.4,2.42-5.4,5.4c0,2.979,2.416,5.399,5.4,5.399h15.557
			c2.734,28.72,26.969,51.258,56.384,51.258c29.418,0,53.66-22.538,56.381-51.258h41.905c2.731,28.72,26.958,51.258,56.384,51.258
			s53.652-22.538,56.389-51.258h18.252c2.979,0,5.399-2.421,5.399-5.399c0-2.98-2.42-5.4-5.399-5.4h-18.252
			C285.663,121.908,261.431,99.367,232.01,99.367z"/>
	</g>
</g>
<g>
</g>
<g>
</g>
<g>
</g>
<g>
</g>
<g>
</g>
<g>
</g>
<g>
</g>
<g>
</g>
<g>
</g>
<g>
</g>
<g>
</g>
<g>
</g>
<g>
</g>
<g>
</g>
<g>
</g>
</svg>
