<?xml version="1.0" encoding="iso-8859-1"?>
<!-- Generator: Adobe Illustrator 19.0.0, SVG Export Plug-In . SVG Version: 6.00 Build 0)  -->
<svg version="1.1" id="Layer_1" xmlns="http://www.w3.org/2000/svg" xmlns:xlink="http://www.w3.org/1999/xlink" x="0px" y="0px"
	 viewBox="0 0 512 512" style="enable-background:new 0 0 512 512;" xml:space="preserve">
<path style="fill:#D6E5F6;" d="M480.35,235.063c-0.003-56.929-24.761-110.913-67.928-148.109
	c-8.536-7.353-21.411-6.396-28.764,2.136s-6.396,21.411,2.136,28.764c34.166,29.44,53.762,72.162,53.765,117.207
	c-0.003,85.227-69.346,154.565-154.577,154.565c-43.907-0.001-85.885-18.758-115.172-51.46c-3.868-4.32-9.391-6.788-15.191-6.789
	l-102.573-0.011c0,0-0.001,0-0.003,0c-11.262,0-20.394,9.132-20.395,20.394c-0.001,11.264,9.129,20.397,20.393,20.397l93.759,0.011
	c31.814,32.275,73.913,52.445,118.783,57.17v62.266c0,11.262,9.132,20.395,20.395,20.395c11.264,0,20.395-9.133,20.395-20.395
	v-62.248C403.552,419.125,480.348,335.895,480.35,235.063z"/>
<path style="fill:#A7C7FC;" d="M412.423,86.954c-8.536-7.353-21.411-6.396-28.764,2.136s-6.396,21.411,2.136,28.764
	c34.166,29.44,53.762,72.162,53.765,117.207c-0.003,85.227-69.346,154.565-154.577,154.565c-0.001,0-0.001,0-0.001,0l-0.001,122.373
	h0.001c11.264,0,20.395-9.133,20.395-20.395v-62.248c98.174-10.23,174.971-93.46,174.974-194.294
	C480.348,178.134,455.589,124.15,412.423,86.954z"/>
<path style="fill:#254186;" d="M366.562,512H203.401c-11.264,0-20.395-9.133-20.395-20.395c0-11.265,9.132-20.395,20.395-20.395
	h163.161c11.264,0,20.395,9.13,20.395,20.395C386.957,502.867,377.825,512,366.562,512z"/>
<path style="fill:#1D3366;" d="M366.562,512c11.264,0,20.395-9.133,20.395-20.395c0-11.265-9.132-20.395-20.395-20.395h-81.58V512
	H366.562z"/>
<path style="fill:#254186;" d="M469.051,72.137l-18.648-18.65l13.616-13.626c7.962-7.966,7.957-20.881-0.008-28.843
	c-7.971-7.961-20.881-7.958-28.846,0.011L421.563,24.64L402.904,5.977c-3.825-3.826-9.013-5.975-14.422-5.975c0,0,0,0,0-0.003
	c-5.41,0.003-10.596,2.151-14.422,5.973l-190.113,190.1c-3.825,3.822-5.973,9.012-5.973,14.42c0,5.412,2.147,10.597,5.973,14.422
	l66.16,66.161c3.825,3.826,9.013,5.977,14.422,5.974c5.41,0.001,10.597-2.147,14.42-5.973L469.05,100.979
	C477.014,93.014,477.014,80.102,469.051,72.137z"/>
<path style="fill:#1D3366;" d="M435.165,11.028l-13.602,13.611L402.904,5.977c-3.825-3.826-9.013-5.975-14.422-5.975
	c0,0,0,0,0-0.003c-5.41,0.003-10.596,2.151-14.422,5.973L273.79,106.237l95.001,95.001l100.26-100.26
	c7.964-7.964,7.964-20.877,0.001-28.842l-18.648-18.65l13.616-13.626c7.962-7.966,7.957-20.881-0.008-28.843
	C456.039,3.058,443.129,3.061,435.165,11.028z"/>
<g>
</g>
<g>
</g>
<g>
</g>
<g>
</g>
<g>
</g>
<g>
</g>
<g>
</g>
<g>
</g>
<g>
</g>
<g>
</g>
<g>
</g>
<g>
</g>
<g>
</g>
<g>
</g>
<g>
</g>
</svg>
