<?xml version="1.0" encoding="UTF-8" standalone="no"?>
<!DOCTYPE svg PUBLIC "-//W3C//DTD SVG 1.1//EN" "http://www.w3.org/Graphics/SVG/1.1/DTD/svg11.dtd">
<svg width="100%" height="100%" viewBox="0 0 3508 2481" version="1.1" xmlns="http://www.w3.org/2000/svg" xmlns:xlink="http://www.w3.org/1999/xlink" xml:space="preserve" xmlns:serif="http://www.serif.com/" style="fill-rule:evenodd;clip-rule:evenodd;stroke-linejoin:round;stroke-miterlimit:1.5;">
    <g transform="matrix(1,0,0,1,-113.048,181.309)">
        <g transform="matrix(1.54872,0,0,1.54872,-744.553,-685.635)">
            <g transform="matrix(266.667,0,0,266.667,1488.96,1111.99)">
                <path d="M0.093,0C0.087,0 0.082,-0.002 0.078,-0.006C0.074,-0.01 0.072,-0.015 0.072,-0.021L0.072,-0.695C0.072,-0.701 0.074,-0.706 0.078,-0.71C0.082,-0.714 0.087,-0.716 0.093,-0.716L0.188,-0.716C0.194,-0.716 0.199,-0.714 0.203,-0.71C0.207,-0.706 0.209,-0.701 0.209,-0.695L0.209,-0.021C0.209,-0.015 0.207,-0.01 0.203,-0.006C0.199,-0.002 0.194,0 0.188,0L0.093,0Z" style="fill-rule:nonzero;"/>
            </g>
            <g transform="matrix(266.667,0,0,266.667,1600.38,1111.99)">
                <path d="M0.093,-0.589C0.081,-0.589 0.072,-0.598 0.072,-0.61L0.072,-0.695C0.072,-0.707 0.081,-0.716 0.093,-0.716L0.188,-0.716C0.2,-0.716 0.209,-0.707 0.209,-0.695L0.209,-0.61C0.209,-0.598 0.2,-0.589 0.188,-0.589L0.093,-0.589ZM0.093,0C0.081,0 0.072,-0.009 0.072,-0.021L0.072,-0.498C0.072,-0.509 0.081,-0.519 0.093,-0.519L0.188,-0.519C0.2,-0.519 0.209,-0.509 0.209,-0.498L0.209,-0.021C0.209,-0.009 0.2,0 0.188,0L0.093,0Z" style="fill-rule:nonzero;"/>
            </g>
            <g transform="matrix(266.667,0,0,266.667,1711.8,1111.99)">
                <path d="M0.087,0C0.075,0 0.066,-0.009 0.066,-0.021L0.066,-0.695C0.066,-0.701 0.068,-0.706 0.072,-0.71C0.076,-0.714 0.081,-0.716 0.087,-0.716L0.182,-0.716C0.194,-0.716 0.203,-0.707 0.203,-0.695L0.203,-0.506C0.203,-0.498 0.208,-0.491 0.215,-0.488C0.222,-0.484 0.23,-0.485 0.236,-0.49C0.271,-0.517 0.31,-0.53 0.354,-0.53C0.417,-0.53 0.469,-0.507 0.51,-0.462C0.552,-0.416 0.572,-0.35 0.572,-0.265C0.572,-0.176 0.551,-0.108 0.509,-0.06C0.467,-0.012 0.416,0.012 0.355,0.012C0.326,0.012 0.297,0.004 0.268,-0.01C0.253,-0.018 0.24,-0.027 0.228,-0.038C0.221,-0.043 0.213,-0.045 0.206,-0.041C0.198,-0.038 0.194,-0.031 0.194,-0.023C0.193,-0.022 0.193,-0.021 0.193,-0.021C0.193,-0.009 0.184,0 0.173,0L0.087,0ZM0.202,-0.271C0.202,-0.217 0.211,-0.177 0.228,-0.151C0.251,-0.115 0.283,-0.097 0.322,-0.097C0.353,-0.097 0.378,-0.11 0.4,-0.135C0.421,-0.161 0.432,-0.202 0.432,-0.258C0.432,-0.317 0.421,-0.36 0.399,-0.386C0.378,-0.412 0.35,-0.425 0.317,-0.425C0.284,-0.425 0.257,-0.413 0.235,-0.387C0.213,-0.361 0.202,-0.323 0.202,-0.271Z" style="fill-rule:nonzero;"/>
            </g>
        </g>
        <g transform="matrix(1.54872,0,0,1.54872,-744.553,-350.215)">
            <g transform="matrix(266.667,0,0,266.667,1488.96,1111.99)">
                <path d="M0.093,0C0.087,0 0.082,-0.002 0.078,-0.006C0.074,-0.01 0.072,-0.015 0.072,-0.021L0.072,-0.695C0.072,-0.701 0.074,-0.706 0.078,-0.71C0.082,-0.714 0.087,-0.716 0.093,-0.716L0.188,-0.716C0.194,-0.716 0.199,-0.714 0.203,-0.71C0.207,-0.706 0.209,-0.701 0.209,-0.695L0.209,-0.021C0.209,-0.015 0.207,-0.01 0.203,-0.006C0.199,-0.002 0.194,0 0.188,0L0.093,0Z" style="fill-rule:nonzero;"/>
            </g>
            <g transform="matrix(266.667,0,0,266.667,1563.04,1111.99)">
                <path d="M0.174,-0.36C0.174,-0.36 0.109,-0.372 0.073,-0.379C0.067,-0.38 0.062,-0.383 0.059,-0.389C0.056,-0.394 0.055,-0.401 0.057,-0.406C0.072,-0.445 0.093,-0.474 0.122,-0.494C0.156,-0.518 0.207,-0.53 0.274,-0.53C0.336,-0.53 0.381,-0.523 0.411,-0.509C0.441,-0.494 0.462,-0.476 0.474,-0.453C0.487,-0.431 0.493,-0.39 0.493,-0.331L0.491,-0.17C0.491,-0.125 0.493,-0.091 0.498,-0.07C0.5,-0.056 0.505,-0.043 0.51,-0.028C0.513,-0.022 0.512,-0.015 0.508,-0.009C0.504,-0.003 0.498,0 0.491,0C0.463,0 0.423,0 0.401,0C0.392,0 0.385,-0.006 0.382,-0.014C0.379,-0.021 0.377,-0.03 0.374,-0.041C0.371,-0.049 0.37,-0.054 0.369,-0.057C0.345,-0.034 0.32,-0.017 0.293,-0.005C0.267,0.006 0.238,0.012 0.208,0.012C0.155,0.012 0.113,-0.003 0.082,-0.032C0.051,-0.061 0.036,-0.097 0.036,-0.142C0.036,-0.171 0.043,-0.197 0.057,-0.22C0.071,-0.243 0.09,-0.26 0.115,-0.273C0.141,-0.285 0.177,-0.296 0.225,-0.305C0.279,-0.315 0.319,-0.324 0.345,-0.334C0.353,-0.336 0.358,-0.344 0.358,-0.352C0.358,-0.352 0.358,-0.352 0.358,-0.352C0.358,-0.378 0.351,-0.397 0.338,-0.408C0.325,-0.42 0.301,-0.425 0.265,-0.425C0.24,-0.425 0.221,-0.42 0.208,-0.411C0.194,-0.401 0.183,-0.384 0.174,-0.36ZM0.358,-0.222C0.358,-0.228 0.355,-0.234 0.35,-0.238C0.345,-0.242 0.338,-0.243 0.332,-0.241C0.316,-0.237 0.297,-0.233 0.274,-0.228C0.236,-0.22 0.211,-0.212 0.2,-0.204C0.182,-0.191 0.173,-0.175 0.173,-0.156C0.173,-0.137 0.18,-0.12 0.194,-0.106C0.209,-0.092 0.227,-0.085 0.249,-0.085C0.274,-0.085 0.297,-0.093 0.32,-0.109C0.336,-0.122 0.347,-0.137 0.353,-0.155C0.356,-0.167 0.358,-0.189 0.358,-0.222L0.358,-0.222Z" style="fill-rule:nonzero;"/>
            </g>
            <g transform="matrix(266.667,0,0,266.667,1711.35,1111.99)">
                <path d="M0.087,0C0.075,0 0.066,-0.009 0.066,-0.021L0.066,-0.695C0.066,-0.701 0.068,-0.706 0.072,-0.71C0.076,-0.714 0.081,-0.716 0.087,-0.716L0.182,-0.716C0.194,-0.716 0.203,-0.707 0.203,-0.695L0.203,-0.506C0.203,-0.498 0.208,-0.491 0.215,-0.488C0.222,-0.484 0.23,-0.485 0.236,-0.49C0.271,-0.517 0.31,-0.53 0.354,-0.53C0.417,-0.53 0.469,-0.507 0.51,-0.462C0.552,-0.416 0.572,-0.35 0.572,-0.265C0.572,-0.176 0.551,-0.108 0.509,-0.06C0.467,-0.012 0.416,0.012 0.355,0.012C0.326,0.012 0.297,0.004 0.268,-0.01C0.253,-0.018 0.24,-0.027 0.228,-0.038C0.221,-0.043 0.213,-0.045 0.206,-0.041C0.198,-0.038 0.194,-0.031 0.194,-0.023C0.193,-0.022 0.193,-0.021 0.193,-0.021C0.193,-0.009 0.184,0 0.173,0L0.087,0ZM0.202,-0.271C0.202,-0.217 0.211,-0.177 0.228,-0.151C0.251,-0.115 0.283,-0.097 0.322,-0.097C0.353,-0.097 0.378,-0.11 0.4,-0.135C0.421,-0.161 0.432,-0.202 0.432,-0.258C0.432,-0.317 0.421,-0.36 0.399,-0.386C0.378,-0.412 0.35,-0.425 0.317,-0.425C0.284,-0.425 0.257,-0.413 0.235,-0.387C0.213,-0.361 0.202,-0.323 0.202,-0.271Z" style="fill-rule:nonzero;"/>
            </g>
        </g>
    </g>
    <g transform="matrix(1.05649,-2.58766e-16,2.58766e-16,1.05649,-71.3387,-59.6471)">
        <path d="M1803.37,726.948C2017.08,726.948 2190.33,900.2 2190.33,1113.92L2190.33,1215.08C2190.33,1219.12 2188.73,1222.99 2185.88,1225.84C2183.02,1228.7 2179.15,1230.3 2175.11,1230.3C2166.29,1230.3 2155.22,1230.3 2146.4,1230.3C2142.36,1230.3 2138.49,1228.7 2135.64,1225.84C2132.78,1222.99 2131.18,1219.12 2131.18,1215.08C2131.18,1181.02 2131.18,1147.06 2131.18,1113.92C2131.18,932.872 1984.41,786.106 1803.37,786.106L1702.2,786.106C1693.8,786.106 1686.98,779.29 1686.98,770.882L1686.98,742.172C1686.98,733.764 1693.8,726.948 1702.2,726.948L1803.37,726.948Z"/>
    </g>
    <g transform="matrix(1.05649,0,0,1.05649,-38.357,-42.1717)">
        <path d="M1227.56,1230.3C1235.96,1230.3 1242.78,1237.12 1242.78,1245.53L1242.78,1346.69C1242.78,1527.73 1389.55,1674.5 1570.59,1674.5L1671.76,1674.5C1675.79,1674.5 1679.66,1676.11 1682.52,1678.96C1685.38,1681.82 1686.98,1685.69 1686.98,1689.73C1686.98,1698.55 1686.98,1709.61 1686.98,1718.43C1686.98,1722.47 1685.38,1726.35 1682.52,1729.2C1679.66,1732.06 1675.79,1733.66 1671.76,1733.66L1570.59,1733.66C1356.88,1733.66 1183.62,1560.41 1183.62,1346.69L1183.62,1245.53C1183.62,1237.12 1190.44,1230.3 1198.85,1230.3L1227.56,1230.3Z"/>
    </g>
    <g transform="matrix(1.15672,0,0,1.20835,-221.079,-256.543)">
        <rect x="1182.94" y="739.617" width="1001.08" height="1001.08" style="fill:none;stroke:black;stroke-width:3.52px;"/>
    </g>
</svg>
