<svg id="Capa_1" enable-background="new 0 0 512 512" height="512" viewBox="0 0 512 512" width="512" xmlns="http://www.w3.org/2000/svg"><g><path d="m0 380.656 52.208 14 44.337-14.001 46.208-80.031 23.268 13.435-24.583-94.758-94.356 26.085 23.265 13.432z" fill="#56c125"/><path d="m304.275 20.871-38.206 29.054-10.065 54.557 46.206 80.033-23.269 13.434 94.355 26.087 24.587-94.756-23.265 13.432z" fill="#019a5a"/><path d="m0 380.656 48.275 83.609h147.171v-83.609h-98.896z" fill="#abe233"/><path d="m463.725 464.265-10.725-42.821-37.55-40.788h-92.414v-26.868l-69.769 68.671 69.769 68.67v-26.864z" fill="#019a5a"/><path d="m304.28 20.875-48.28 83.6-49.45 85.65-72.4-41.8 73.57-127.45z" fill="#abe233"/><g fill="#56c125"><path d="m304.28 20.875-48.28 83.6v-83.6z"/><path d="m438.408 253.202-72.406 41.804 97.723 169.259 48.275-83.609z"/></g></g></svg>