<?xml version="1.0" encoding="iso-8859-1"?>
<!-- Generator: Adobe Illustrator 16.0.0, SVG Export Plug-In . SVG Version: 6.00 Build 0)  -->
<!DOCTYPE svg PUBLIC "-//W3C//DTD SVG 1.1//EN" "http://www.w3.org/Graphics/SVG/1.1/DTD/svg11.dtd">
<svg version="1.1" id="Capa_1" xmlns="http://www.w3.org/2000/svg" xmlns:xlink="http://www.w3.org/1999/xlink" x="0px" y="0px"
	 width="57.788px" height="57.789px" viewBox="0 0 57.788 57.789" style="enable-background:new 0 0 57.788 57.789;"
	 xml:space="preserve">
<g>
	<g>
		<path d="M42.965,18.402c-5.449,0-9.938,4.174-10.441,9.492h-7.759c-0.506-5.318-4.993-9.492-10.441-9.492
			c-5.448,0-9.938,4.174-10.442,9.492H1c-0.553,0-1,0.448-1,1s0.447,1,1,1h2.881c0.506,5.318,4.994,9.492,10.441,9.492
			c5.447,0,9.937-4.174,10.44-9.492h7.759c0.508,5.318,4.994,9.492,10.442,9.492c5.449,0,9.937-4.174,10.443-9.492h3.381
			c0.551,0,1-0.448,1-1s-0.449-1-1-1h-3.381C52.9,22.576,48.413,18.402,42.965,18.402z M14.323,37.386
			c-4.684,0-8.493-3.811-8.493-8.492c0-4.682,3.811-8.492,8.493-8.492c4.684,0,8.491,3.81,8.491,8.492
			C22.814,33.576,19.005,37.386,14.323,37.386z M42.965,37.386c-4.684,0-8.492-3.811-8.492-8.492c0-4.682,3.812-8.492,8.492-8.492
			c4.684,0,8.492,3.81,8.492,8.492C51.457,33.576,47.648,37.386,42.965,37.386z"/>
	</g>
</g>
<g>
</g>
<g>
</g>
<g>
</g>
<g>
</g>
<g>
</g>
<g>
</g>
<g>
</g>
<g>
</g>
<g>
</g>
<g>
</g>
<g>
</g>
<g>
</g>
<g>
</g>
<g>
</g>
<g>
</g>
</svg>
